<svg width="67" height="66" viewBox="0 0 67 66" fill="none" xmlns="http://www.w3.org/2000/svg">
<g filter="url(#filter0_d_624_815)">
<rect x="5" y="5" width="57" height="55.5195" rx="14.8052" fill="#222222"/>
</g>
<g filter="url(#filter1_d_624_815)">
<rect x="5" y="5" width="57" height="55.5195" rx="14.8052" fill="#222222"/>
</g>
<g filter="url(#filter2_d_624_815)">
<rect x="5" y="5" width="57" height="55.5195" rx="14.8052" fill="#222222"/>
</g>
<path d="M33.8734 19.1321C30.072 19.1321 29.5949 19.1487 28.1019 19.2166C26.6117 19.2849 25.5946 19.5208 24.7046 19.867C23.784 20.2245 23.0031 20.7027 22.2251 21.4811C21.4465 22.2591 20.9682 23.04 20.6096 23.9604C20.2625 24.8507 20.0263 25.8682 19.9593 27.3577C19.8925 28.8508 19.875 29.3282 19.875 33.1297C19.875 36.9312 19.8919 37.4069 19.9596 38.9C20.0281 40.3901 20.264 41.4073 20.6099 42.2973C20.9677 43.2179 21.4459 43.9989 22.2242 44.7769C23.0019 45.5555 23.7828 46.035 24.7029 46.3925C25.5934 46.7386 26.6109 46.9746 28.1007 47.0428C29.5937 47.1107 30.0705 47.1274 33.8716 47.1274C37.6733 47.1274 38.1489 47.1107 39.642 47.0428C41.1321 46.9746 42.1504 46.7386 43.041 46.3925C43.9613 46.035 44.7411 45.5555 45.5188 44.7769C46.2974 43.9989 46.7756 43.2179 47.1343 42.2976C47.4784 41.4073 47.7146 40.3898 47.7846 38.9002C47.8516 37.4072 47.8691 36.9312 47.8691 33.1297C47.8691 29.3282 47.8516 28.8511 47.7846 27.358C47.7146 25.8679 47.4784 24.8507 47.1343 23.9607C46.7756 23.04 46.2974 22.2591 45.5188 21.4811C44.7402 20.7024 43.9616 20.2242 43.0401 19.867C42.1478 19.5208 41.1301 19.2849 39.6399 19.2166C38.1469 19.1487 37.6716 19.1321 33.869 19.1321H33.8734ZM32.6177 21.6546C32.9904 21.654 33.4062 21.6546 33.8734 21.6546C37.6106 21.6546 38.0536 21.668 39.5294 21.7351C40.8942 21.7975 41.6348 22.0255 42.1282 22.2171C42.7814 22.4708 43.2471 22.7741 43.7368 23.264C44.2267 23.7539 44.5299 24.2205 44.7842 24.8737C44.9758 25.3666 45.2041 26.1073 45.2662 27.472C45.3333 28.9476 45.3479 29.3909 45.3479 33.1265C45.3479 36.8621 45.3333 37.3054 45.2662 38.781C45.2038 40.1457 44.9758 40.8865 44.7842 41.3793C44.5305 42.0325 44.2267 42.4976 43.7368 42.9873C43.2469 43.4772 42.7817 43.7805 42.1282 44.0342C41.6354 44.2266 40.8942 44.4541 39.5294 44.5165C38.0539 44.5836 37.6106 44.5982 33.8734 44.5982C30.1358 44.5982 29.6929 44.5836 28.2173 44.5165C26.8526 44.4535 26.1119 44.2255 25.6182 44.0339C24.965 43.7802 24.4985 43.4769 24.0086 42.987C23.5187 42.4971 23.2154 42.0316 22.9611 41.3781C22.7695 40.8853 22.5412 40.1446 22.4791 38.7798C22.412 37.3042 22.3986 36.861 22.3986 33.123C22.3986 29.3851 22.412 28.9441 22.4791 27.4685C22.5415 26.1038 22.7695 25.3631 22.9611 24.8697C23.2148 24.2164 23.5187 23.7498 24.0086 23.2599C24.4985 22.77 24.965 22.4667 25.6182 22.2124C26.1116 22.02 26.8526 21.7925 28.2173 21.7298C29.5086 21.6715 30.009 21.654 32.6177 21.6511V21.6546ZM41.345 23.9788C40.4177 23.9788 39.6653 24.7303 39.6653 25.6579C39.6653 26.5852 40.4177 27.3376 41.345 27.3376C42.2723 27.3376 43.0246 26.5852 43.0246 25.6579C43.0246 24.7306 42.2723 23.9782 41.345 23.9782V23.9788ZM33.8734 25.9413C29.9037 25.9413 26.6852 29.1599 26.6852 33.1297C26.6852 37.0995 29.9037 40.3166 33.8734 40.3166C37.8431 40.3166 41.0604 37.0995 41.0604 33.1297C41.0604 29.1599 37.8428 25.9413 33.8731 25.9413H33.8734ZM33.8734 28.4638C36.45 28.4638 38.5391 30.5527 38.5391 33.1297C38.5391 35.7065 36.45 37.7956 33.8734 37.7956C31.2964 37.7956 29.2076 35.7065 29.2076 33.1297C29.2076 30.5527 31.2964 28.4638 33.8734 28.4638V28.4638Z" fill="url(#paint0_radial_624_815)"/>
<path d="M33.8734 19.1321C30.072 19.1321 29.5949 19.1487 28.1019 19.2166C26.6117 19.2849 25.5946 19.5208 24.7046 19.867C23.784 20.2245 23.0031 20.7027 22.2251 21.4811C21.4465 22.2591 20.9682 23.04 20.6096 23.9604C20.2625 24.8507 20.0263 25.8682 19.9593 27.3577C19.8925 28.8508 19.875 29.3282 19.875 33.1297C19.875 36.9312 19.8919 37.4069 19.9596 38.9C20.0281 40.3901 20.264 41.4073 20.6099 42.2973C20.9677 43.2179 21.4459 43.9989 22.2242 44.7769C23.0019 45.5555 23.7828 46.035 24.7029 46.3925C25.5934 46.7386 26.6109 46.9746 28.1007 47.0428C29.5937 47.1107 30.0705 47.1274 33.8716 47.1274C37.6733 47.1274 38.1489 47.1107 39.642 47.0428C41.1321 46.9746 42.1504 46.7386 43.041 46.3925C43.9613 46.035 44.7411 45.5555 45.5188 44.7769C46.2974 43.9989 46.7756 43.2179 47.1343 42.2976C47.4784 41.4073 47.7146 40.3898 47.7846 38.9002C47.8516 37.4072 47.8691 36.9312 47.8691 33.1297C47.8691 29.3282 47.8516 28.8511 47.7846 27.358C47.7146 25.8679 47.4784 24.8507 47.1343 23.9607C46.7756 23.04 46.2974 22.2591 45.5188 21.4811C44.7402 20.7024 43.9616 20.2242 43.0401 19.867C42.1478 19.5208 41.1301 19.2849 39.6399 19.2166C38.1469 19.1487 37.6716 19.1321 33.869 19.1321H33.8734ZM32.6177 21.6546C32.9904 21.654 33.4062 21.6546 33.8734 21.6546C37.6106 21.6546 38.0536 21.668 39.5294 21.7351C40.8942 21.7975 41.6348 22.0255 42.1282 22.2171C42.7814 22.4708 43.2471 22.7741 43.7368 23.264C44.2267 23.7539 44.5299 24.2205 44.7842 24.8737C44.9758 25.3666 45.2041 26.1073 45.2662 27.472C45.3333 28.9476 45.3479 29.3909 45.3479 33.1265C45.3479 36.8621 45.3333 37.3054 45.2662 38.781C45.2038 40.1457 44.9758 40.8865 44.7842 41.3793C44.5305 42.0325 44.2267 42.4976 43.7368 42.9873C43.2469 43.4772 42.7817 43.7805 42.1282 44.0342C41.6354 44.2266 40.8942 44.4541 39.5294 44.5165C38.0539 44.5836 37.6106 44.5982 33.8734 44.5982C30.1358 44.5982 29.6929 44.5836 28.2173 44.5165C26.8526 44.4535 26.1119 44.2255 25.6182 44.0339C24.965 43.7802 24.4985 43.4769 24.0086 42.987C23.5187 42.4971 23.2154 42.0316 22.9611 41.3781C22.7695 40.8853 22.5412 40.1446 22.4791 38.7798C22.412 37.3042 22.3986 36.861 22.3986 33.123C22.3986 29.3851 22.412 28.9441 22.4791 27.4685C22.5415 26.1038 22.7695 25.3631 22.9611 24.8697C23.2148 24.2164 23.5187 23.7498 24.0086 23.2599C24.4985 22.77 24.965 22.4667 25.6182 22.2124C26.1116 22.02 26.8526 21.7925 28.2173 21.7298C29.5086 21.6715 30.009 21.654 32.6177 21.6511V21.6546ZM41.345 23.9788C40.4177 23.9788 39.6653 24.7303 39.6653 25.6579C39.6653 26.5852 40.4177 27.3376 41.345 27.3376C42.2723 27.3376 43.0246 26.5852 43.0246 25.6579C43.0246 24.7306 42.2723 23.9782 41.345 23.9782V23.9788ZM33.8734 25.9413C29.9037 25.9413 26.6852 29.1599 26.6852 33.1297C26.6852 37.0995 29.9037 40.3166 33.8734 40.3166C37.8431 40.3166 41.0604 37.0995 41.0604 33.1297C41.0604 29.1599 37.8428 25.9413 33.8731 25.9413H33.8734ZM33.8734 28.4638C36.45 28.4638 38.5391 30.5527 38.5391 33.1297C38.5391 35.7065 36.45 37.7956 33.8734 37.7956C31.2964 37.7956 29.2076 35.7065 29.2076 33.1297C29.2076 30.5527 31.2964 28.4638 33.8734 28.4638V28.4638Z" fill="url(#paint1_radial_624_815)"/>
<defs>
<filter id="filter0_d_624_815" x="1.74026" y="1" width="65" height="63.5195" filterUnits="userSpaceOnUse" color-interpolation-filters="sRGB">
<feFlood flood-opacity="0" result="BackgroundImageFix"/>
<feColorMatrix in="SourceAlpha" type="matrix" values="0 0 0 0 0 0 0 0 0 0 0 0 0 0 0 0 0 0 127 0" result="hardAlpha"/>
<feOffset dx="0.74026"/>
<feGaussianBlur stdDeviation="2"/>
<feColorMatrix type="matrix" values="0 0 0 0 0.866667 0 0 0 0 0.164706 0 0 0 0 0.482353 0 0 0 0.2 0"/>
<feBlend mode="normal" in2="BackgroundImageFix" result="effect1_dropShadow_624_815"/>
<feBlend mode="normal" in="SourceGraphic" in2="effect1_dropShadow_624_815" result="shape"/>
</filter>
<filter id="filter1_d_624_815" x="1" y="0" width="65" height="63.5195" filterUnits="userSpaceOnUse" color-interpolation-filters="sRGB">
<feFlood flood-opacity="0" result="BackgroundImageFix"/>
<feColorMatrix in="SourceAlpha" type="matrix" values="0 0 0 0 0 0 0 0 0 0 0 0 0 0 0 0 0 0 127 0" result="hardAlpha"/>
<feOffset dy="-1"/>
<feGaussianBlur stdDeviation="2"/>
<feColorMatrix type="matrix" values="0 0 0 0 0.317647 0 0 0 0 0.356863 0 0 0 0 0.831373 0 0 0 0.25 0"/>
<feBlend mode="normal" in2="BackgroundImageFix" result="effect1_dropShadow_624_815"/>
<feBlend mode="normal" in="SourceGraphic" in2="effect1_dropShadow_624_815" result="shape"/>
</filter>
<filter id="filter2_d_624_815" x="0.25974" y="1.74026" width="65" height="63.5195" filterUnits="userSpaceOnUse" color-interpolation-filters="sRGB">
<feFlood flood-opacity="0" result="BackgroundImageFix"/>
<feColorMatrix in="SourceAlpha" type="matrix" values="0 0 0 0 0 0 0 0 0 0 0 0 0 0 0 0 0 0 127 0" result="hardAlpha"/>
<feOffset dx="-0.74026" dy="0.74026"/>
<feGaussianBlur stdDeviation="2"/>
<feColorMatrix type="matrix" values="0 0 0 0 0.996078 0 0 0 0 0.854902 0 0 0 0 0.466667 0 0 0 0.2 0"/>
<feBlend mode="normal" in2="BackgroundImageFix" result="effect1_dropShadow_624_815"/>
<feBlend mode="normal" in="SourceGraphic" in2="effect1_dropShadow_624_815" result="shape"/>
</filter>
<radialGradient id="paint0_radial_624_815" cx="0" cy="0" r="1" gradientUnits="userSpaceOnUse" gradientTransform="translate(27.311 49.2836) rotate(-90) scale(27.7454 25.8043)">
<stop stop-color="#FFDD55"/>
<stop offset="0.1" stop-color="#FFDD55"/>
<stop offset="0.5" stop-color="#FF543E"/>
<stop offset="1" stop-color="#C837AB"/>
</radialGradient>
<radialGradient id="paint1_radial_624_815" cx="0" cy="0" r="1" gradientUnits="userSpaceOnUse" gradientTransform="translate(15.1858 21.1488) rotate(78.6811) scale(12.4023 51.1208)">
<stop stop-color="#3771C8"/>
<stop offset="0.128" stop-color="#3771C8"/>
<stop offset="1" stop-color="#6600FF" stop-opacity="0"/>
</radialGradient>
</defs>
</svg>
