<svg width="67" height="66" viewBox="0 0 67 66" fill="none" xmlns="http://www.w3.org/2000/svg">
<g filter="url(#filter0_d_624_836)">
<rect x="5" y="5" width="57" height="55.5195" rx="14.8052" fill="white"/>
</g>
<g filter="url(#filter1_d_624_836)">
<rect x="5" y="5" width="57" height="55.5195" rx="14.8052" fill="white"/>
</g>
<g filter="url(#filter2_d_624_836)">
<rect x="5" y="5" width="57" height="55.5195" rx="14.8052" fill="white"/>
</g>
<path d="M33.8734 19.1318C30.072 19.1318 29.5949 19.1485 28.1019 19.2164C26.6117 19.2846 25.5946 19.5206 24.7046 19.8667C23.784 20.2242 23.0031 20.7025 22.2251 21.4808C21.4465 22.2589 20.9682 23.0398 20.6096 23.9601C20.2625 24.8505 20.0263 25.8679 19.9593 27.3575C19.8925 28.8506 19.875 29.3279 19.875 33.1295C19.875 36.931 19.8919 37.4066 19.9596 38.8997C20.0281 40.3899 20.264 41.407 20.6099 42.2971C20.9677 43.2177 21.4459 43.9986 22.2242 44.7767C23.0019 45.5553 23.7828 46.0347 24.7029 46.3922C25.5934 46.7384 26.6109 46.9743 28.1007 47.0425C29.5937 47.1105 30.0705 47.1271 33.8716 47.1271C37.6733 47.1271 38.1489 47.1105 39.642 47.0425C41.1321 46.9743 42.1504 46.7384 43.041 46.3922C43.9613 46.0347 44.7411 45.5553 45.5188 44.7767C46.2974 43.9986 46.7756 43.2177 47.1343 42.2973C47.4784 41.407 47.7146 40.3896 47.7846 38.9C47.8516 37.4069 47.8691 36.931 47.8691 33.1295C47.8691 29.3279 47.8516 28.8509 47.7846 27.3578C47.7146 25.8676 47.4784 24.8505 47.1343 23.9604C46.7756 23.0398 46.2974 22.2589 45.5188 21.4808C44.7402 20.7022 43.9616 20.2239 43.0401 19.8667C42.1478 19.5206 41.1301 19.2846 39.6399 19.2164C38.1469 19.1485 37.6716 19.1318 33.869 19.1318H33.8734ZM32.6177 21.6543C32.9904 21.6537 33.4062 21.6543 33.8734 21.6543C37.6106 21.6543 38.0536 21.6677 39.5294 21.7348C40.8942 21.7972 41.6348 22.0253 42.1282 22.2169C42.7814 22.4706 43.2471 22.7738 43.7368 23.2638C44.2267 23.7537 44.5299 24.2203 44.7842 24.8735C44.9758 25.3663 45.2041 26.107 45.2662 27.4718C45.3333 28.9474 45.3479 29.3906 45.3479 33.1263C45.3479 36.8619 45.3333 37.3051 45.2662 38.7807C45.2038 40.1455 44.9758 40.8862 44.7842 41.379C44.5305 42.0323 44.2267 42.4974 43.7368 42.987C43.2469 43.4769 42.7817 43.7802 42.1282 44.0339C41.6354 44.2264 40.8942 44.4539 39.5294 44.5163C38.0539 44.5833 37.6106 44.5979 33.8734 44.5979C30.1358 44.5979 29.6929 44.5833 28.2173 44.5163C26.8526 44.4533 26.1119 44.2252 25.6182 44.0336C24.965 43.7799 24.4985 43.4766 24.0086 42.9867C23.5187 42.4968 23.2154 42.0314 22.9611 41.3779C22.7695 40.885 22.5412 40.1443 22.4791 38.7796C22.412 37.304 22.3986 36.8607 22.3986 33.1228C22.3986 29.3848 22.412 28.9439 22.4791 27.4683C22.5415 26.1035 22.7695 25.3628 22.9611 24.8694C23.2148 24.2162 23.5187 23.7496 24.0086 23.2597C24.4985 22.7698 24.965 22.4665 25.6182 22.2122C26.1116 22.0197 26.8526 21.7923 28.2173 21.7296C29.5086 21.6712 30.009 21.6537 32.6177 21.6508V21.6543ZM41.345 23.9785C40.4177 23.9785 39.6653 24.73 39.6653 25.6577C39.6653 26.585 40.4177 27.3374 41.345 27.3374C42.2723 27.3374 43.0246 26.585 43.0246 25.6577C43.0246 24.7303 42.2723 23.9779 41.345 23.9779V23.9785ZM33.8734 25.9411C29.9037 25.9411 26.6852 29.1597 26.6852 33.1295C26.6852 37.0993 29.9037 40.3164 33.8734 40.3164C37.8431 40.3164 41.0604 37.0993 41.0604 33.1295C41.0604 29.1597 37.8428 25.9411 33.8731 25.9411H33.8734ZM33.8734 28.4636C36.45 28.4636 38.5391 30.5525 38.5391 33.1295C38.5391 35.7062 36.45 37.7954 33.8734 37.7954C31.2964 37.7954 29.2076 35.7062 29.2076 33.1295C29.2076 30.5525 31.2964 28.4636 33.8734 28.4636V28.4636Z" fill="url(#paint0_radial_624_836)"/>
<path d="M33.8734 19.1318C30.072 19.1318 29.5949 19.1485 28.1019 19.2164C26.6117 19.2846 25.5946 19.5206 24.7046 19.8667C23.784 20.2242 23.0031 20.7025 22.2251 21.4808C21.4465 22.2589 20.9682 23.0398 20.6096 23.9601C20.2625 24.8505 20.0263 25.8679 19.9593 27.3575C19.8925 28.8506 19.875 29.3279 19.875 33.1295C19.875 36.931 19.8919 37.4066 19.9596 38.8997C20.0281 40.3899 20.264 41.407 20.6099 42.2971C20.9677 43.2177 21.4459 43.9986 22.2242 44.7767C23.0019 45.5553 23.7828 46.0347 24.7029 46.3922C25.5934 46.7384 26.6109 46.9743 28.1007 47.0425C29.5937 47.1105 30.0705 47.1271 33.8716 47.1271C37.6733 47.1271 38.1489 47.1105 39.642 47.0425C41.1321 46.9743 42.1504 46.7384 43.041 46.3922C43.9613 46.0347 44.7411 45.5553 45.5188 44.7767C46.2974 43.9986 46.7756 43.2177 47.1343 42.2973C47.4784 41.407 47.7146 40.3896 47.7846 38.9C47.8516 37.4069 47.8691 36.931 47.8691 33.1295C47.8691 29.3279 47.8516 28.8509 47.7846 27.3578C47.7146 25.8676 47.4784 24.8505 47.1343 23.9604C46.7756 23.0398 46.2974 22.2589 45.5188 21.4808C44.7402 20.7022 43.9616 20.2239 43.0401 19.8667C42.1478 19.5206 41.1301 19.2846 39.6399 19.2164C38.1469 19.1485 37.6716 19.1318 33.869 19.1318H33.8734ZM32.6177 21.6543C32.9904 21.6537 33.4062 21.6543 33.8734 21.6543C37.6106 21.6543 38.0536 21.6677 39.5294 21.7348C40.8942 21.7972 41.6348 22.0253 42.1282 22.2169C42.7814 22.4706 43.2471 22.7738 43.7368 23.2638C44.2267 23.7537 44.5299 24.2203 44.7842 24.8735C44.9758 25.3663 45.2041 26.107 45.2662 27.4718C45.3333 28.9474 45.3479 29.3906 45.3479 33.1263C45.3479 36.8619 45.3333 37.3051 45.2662 38.7807C45.2038 40.1455 44.9758 40.8862 44.7842 41.379C44.5305 42.0323 44.2267 42.4974 43.7368 42.987C43.2469 43.4769 42.7817 43.7802 42.1282 44.0339C41.6354 44.2264 40.8942 44.4539 39.5294 44.5163C38.0539 44.5833 37.6106 44.5979 33.8734 44.5979C30.1358 44.5979 29.6929 44.5833 28.2173 44.5163C26.8526 44.4533 26.1119 44.2252 25.6182 44.0336C24.965 43.7799 24.4985 43.4766 24.0086 42.9867C23.5187 42.4968 23.2154 42.0314 22.9611 41.3779C22.7695 40.885 22.5412 40.1443 22.4791 38.7796C22.412 37.304 22.3986 36.8607 22.3986 33.1228C22.3986 29.3848 22.412 28.9439 22.4791 27.4683C22.5415 26.1035 22.7695 25.3628 22.9611 24.8694C23.2148 24.2162 23.5187 23.7496 24.0086 23.2597C24.4985 22.7698 24.965 22.4665 25.6182 22.2122C26.1116 22.0197 26.8526 21.7923 28.2173 21.7296C29.5086 21.6712 30.009 21.6537 32.6177 21.6508V21.6543ZM41.345 23.9785C40.4177 23.9785 39.6653 24.73 39.6653 25.6577C39.6653 26.585 40.4177 27.3374 41.345 27.3374C42.2723 27.3374 43.0246 26.585 43.0246 25.6577C43.0246 24.7303 42.2723 23.9779 41.345 23.9779V23.9785ZM33.8734 25.9411C29.9037 25.9411 26.6852 29.1597 26.6852 33.1295C26.6852 37.0993 29.9037 40.3164 33.8734 40.3164C37.8431 40.3164 41.0604 37.0993 41.0604 33.1295C41.0604 29.1597 37.8428 25.9411 33.8731 25.9411H33.8734ZM33.8734 28.4636C36.45 28.4636 38.5391 30.5525 38.5391 33.1295C38.5391 35.7062 36.45 37.7954 33.8734 37.7954C31.2964 37.7954 29.2076 35.7062 29.2076 33.1295C29.2076 30.5525 31.2964 28.4636 33.8734 28.4636V28.4636Z" fill="url(#paint1_radial_624_836)"/>
<defs>
<filter id="filter0_d_624_836" x="1.74026" y="1" width="65" height="63.5195" filterUnits="userSpaceOnUse" color-interpolation-filters="sRGB">
<feFlood flood-opacity="0" result="BackgroundImageFix"/>
<feColorMatrix in="SourceAlpha" type="matrix" values="0 0 0 0 0 0 0 0 0 0 0 0 0 0 0 0 0 0 127 0" result="hardAlpha"/>
<feOffset dx="0.74026"/>
<feGaussianBlur stdDeviation="2"/>
<feColorMatrix type="matrix" values="0 0 0 0 0.866667 0 0 0 0 0.164706 0 0 0 0 0.482353 0 0 0 0.2 0"/>
<feBlend mode="normal" in2="BackgroundImageFix" result="effect1_dropShadow_624_836"/>
<feBlend mode="normal" in="SourceGraphic" in2="effect1_dropShadow_624_836" result="shape"/>
</filter>
<filter id="filter1_d_624_836" x="1" y="0" width="65" height="63.5195" filterUnits="userSpaceOnUse" color-interpolation-filters="sRGB">
<feFlood flood-opacity="0" result="BackgroundImageFix"/>
<feColorMatrix in="SourceAlpha" type="matrix" values="0 0 0 0 0 0 0 0 0 0 0 0 0 0 0 0 0 0 127 0" result="hardAlpha"/>
<feOffset dy="-1"/>
<feGaussianBlur stdDeviation="2"/>
<feColorMatrix type="matrix" values="0 0 0 0 0.317647 0 0 0 0 0.356863 0 0 0 0 0.831373 0 0 0 0.25 0"/>
<feBlend mode="normal" in2="BackgroundImageFix" result="effect1_dropShadow_624_836"/>
<feBlend mode="normal" in="SourceGraphic" in2="effect1_dropShadow_624_836" result="shape"/>
</filter>
<filter id="filter2_d_624_836" x="0.25974" y="1.74026" width="65" height="63.5195" filterUnits="userSpaceOnUse" color-interpolation-filters="sRGB">
<feFlood flood-opacity="0" result="BackgroundImageFix"/>
<feColorMatrix in="SourceAlpha" type="matrix" values="0 0 0 0 0 0 0 0 0 0 0 0 0 0 0 0 0 0 127 0" result="hardAlpha"/>
<feOffset dx="-0.74026" dy="0.74026"/>
<feGaussianBlur stdDeviation="2"/>
<feColorMatrix type="matrix" values="0 0 0 0 0.996078 0 0 0 0 0.854902 0 0 0 0 0.466667 0 0 0 0.2 0"/>
<feBlend mode="normal" in2="BackgroundImageFix" result="effect1_dropShadow_624_836"/>
<feBlend mode="normal" in="SourceGraphic" in2="effect1_dropShadow_624_836" result="shape"/>
</filter>
<radialGradient id="paint0_radial_624_836" cx="0" cy="0" r="1" gradientUnits="userSpaceOnUse" gradientTransform="translate(27.311 49.2833) rotate(-90) scale(27.7454 25.8043)">
<stop stop-color="#FFDD55"/>
<stop offset="0.1" stop-color="#FFDD55"/>
<stop offset="0.5" stop-color="#FF543E"/>
<stop offset="1" stop-color="#C837AB"/>
</radialGradient>
<radialGradient id="paint1_radial_624_836" cx="0" cy="0" r="1" gradientUnits="userSpaceOnUse" gradientTransform="translate(15.1858 21.1486) rotate(78.6811) scale(12.4023 51.1208)">
<stop stop-color="#3771C8"/>
<stop offset="0.128" stop-color="#3771C8"/>
<stop offset="1" stop-color="#6600FF" stop-opacity="0"/>
</radialGradient>
</defs>
</svg>
