<svg width="67" height="66" viewBox="0 0 67 66" fill="none" xmlns="http://www.w3.org/2000/svg">
<g filter="url(#filter0_d_624_843)">
<rect x="5" y="5" width="57" height="55.5195" rx="14.8052" fill="white"/>
</g>
<g filter="url(#filter1_d_624_843)">
<rect x="5" y="5" width="57" height="55.5195" rx="14.8052" fill="white"/>
</g>
<path d="M26.0802 36.4881C26.2338 35.216 26.7556 34.5038 27.7387 33.7737C29.1455 32.7848 30.9027 33.3442 30.9027 33.3442V30.0258C31.3299 30.0149 31.7573 30.0403 32.1799 30.1015V34.3719C32.1799 34.3719 30.4232 33.8125 29.0164 34.8019C28.0337 35.5315 27.5109 36.2442 27.3578 37.5164C27.353 38.2071 27.4827 39.1101 28.0796 39.8908C27.932 39.8151 27.7816 39.7289 27.6283 39.6321C26.3133 38.7491 26.0738 37.4243 26.0802 36.4881ZM39.4356 23.8903C38.4679 22.8299 38.1019 21.7592 37.9696 21.0071H39.187C39.187 21.0071 38.9443 22.9792 40.7133 24.9185L40.7378 24.9446C40.261 24.6447 39.8238 24.2907 39.4356 23.8903ZM45.3 26.8967V31.0812C45.3 31.0812 43.7466 31.0203 42.5969 30.7279C40.9917 30.3188 39.96 29.6915 39.96 29.6915C39.96 29.6915 39.2473 29.2441 39.1897 29.2129V37.8538C39.1897 38.3349 39.0579 39.5365 38.6562 40.5386C38.1318 41.8496 37.3225 42.7101 37.1737 42.886C37.1737 42.886 36.1894 44.0492 34.453 44.8325C32.8878 45.5391 31.5136 45.5212 31.1028 45.5391C31.1028 45.5391 28.7273 45.6332 26.5896 44.244C26.1274 43.9378 25.6959 43.591 25.3008 43.2081L25.3115 43.2158C27.4496 44.605 29.8246 44.5109 29.8246 44.5109C30.2359 44.493 31.6101 44.5109 33.1748 43.8043C34.9096 43.021 35.8955 41.8578 35.8955 41.8578C36.0427 41.6819 36.8557 40.8214 37.378 39.5099C37.7786 38.5083 37.9115 37.3062 37.9115 36.8251V28.1852C37.9691 28.2169 38.6813 28.6643 38.6813 28.6643C38.6813 28.6643 39.7135 29.2921 41.3187 29.7007C42.4689 29.9931 44.0218 30.054 44.0218 30.054V26.775C44.5532 26.8942 45.0061 26.9264 45.3 26.8967Z" fill="#FD355A"/>
<path d="M44.024 26.775V30.0529C44.024 30.0529 42.471 29.9921 41.3209 29.6996C39.7157 29.2906 38.6834 28.6632 38.6834 28.6632C38.6834 28.6632 37.9712 28.2159 37.9136 28.1842V36.8261C37.9136 37.3072 37.7818 38.5093 37.3801 39.5109C36.8557 40.8224 36.0465 41.6829 35.8976 41.8588C35.8976 41.8588 34.9128 43.022 33.1769 43.8053C31.6123 44.5119 30.238 44.494 29.8267 44.5119C29.8267 44.5119 27.4517 44.606 25.3136 43.2168L25.3029 43.2091C25.0772 42.9905 24.8647 42.7597 24.6665 42.5179C23.9842 41.686 23.5659 40.7022 23.4608 40.4215C23.4607 40.4204 23.4607 40.4191 23.4608 40.418C23.2917 39.9302 22.9364 38.7588 22.985 37.6242C23.0709 35.6225 23.7751 34.3939 23.9612 34.0861C24.4543 33.2467 25.0956 32.4957 25.8566 31.8665C26.5282 31.3236 27.2894 30.8916 28.109 30.5883C28.995 30.2321 29.9437 30.0412 30.9043 30.0258V33.3442C30.9043 33.3442 29.1471 32.7869 27.7409 33.7737C26.7577 34.5038 26.2359 35.216 26.0823 36.4881C26.0759 37.4243 26.3154 38.7491 27.6294 39.6326C27.7827 39.7298 27.9331 39.816 28.0807 39.8913C28.3102 40.1897 28.5896 40.4497 28.9076 40.6608C30.1911 41.4733 31.2666 41.53 32.6418 41.0024C33.5589 40.6496 34.2492 39.8545 34.5693 38.9735C34.7704 38.4234 34.7677 37.8697 34.7677 37.297V21.0071H37.9685C38.1008 21.7592 38.4668 22.8299 39.4345 23.8903C39.8227 24.2907 40.2599 24.6447 40.7367 24.9446C40.8776 25.0903 41.5977 25.8107 42.5222 26.253C43.0003 26.4816 43.5042 26.6568 44.024 26.775V26.775Z" fill="black"/>
<path d="M22.1836 39.4026V39.4051L22.263 39.6204C22.2539 39.5953 22.2244 39.5192 22.1836 39.4026Z" fill="#33F3ED"/>
<path d="M28.1063 30.5882C27.2867 30.8915 26.5255 31.3235 25.8539 31.8665C25.0927 32.4971 24.4515 33.2496 23.9591 34.0906C23.7729 34.3974 23.0687 35.627 22.9828 37.6288C22.9343 38.7633 23.2896 39.9347 23.4587 40.4225C23.4585 40.4237 23.4585 40.4249 23.4587 40.4261C23.5654 40.7042 23.982 41.688 24.6643 42.5224C24.8625 42.7643 25.075 42.9951 25.3007 43.2137C24.5775 42.7342 23.9324 42.1546 23.3866 41.4937C22.7102 40.6689 22.293 39.6954 22.1842 39.4081C22.1841 39.406 22.1841 39.404 22.1842 39.4019V39.3984C22.0146 38.9111 21.6582 37.7392 21.7078 36.6031C21.7937 34.6014 22.4979 33.3727 22.6841 33.0649C23.1764 32.2239 23.8176 31.4713 24.5789 30.8408C25.2504 30.2977 26.0116 29.8657 26.8313 29.5625C27.3425 29.3592 27.8752 29.2092 28.4199 29.1152C29.2409 28.9778 30.0794 28.9659 30.9043 29.0799V30.0258C29.9428 30.0409 28.9931 30.2318 28.1063 30.5882Z" fill="#33F3ED"/>
<path d="M37.9681 21.007H34.7673V37.2974C34.7673 37.8701 34.7673 38.4223 34.5688 38.974C34.2456 39.8544 33.5579 40.6495 32.6414 41.0023C31.2656 41.532 30.1901 41.4732 28.9071 40.6607C28.5886 40.4506 28.3085 40.1914 28.0781 39.8938C29.1712 40.4526 30.1496 40.4429 31.3616 39.9766C32.2776 39.6238 32.9663 38.8288 33.2885 37.9478C33.4902 37.3976 33.4875 36.8439 33.4875 36.2718V19.9783H37.9073C37.9073 19.9783 37.8577 20.3832 37.9681 21.007ZM44.0209 25.8684V26.7749C43.502 26.6565 42.999 26.4813 42.5218 26.2529C41.5973 25.8106 40.8771 25.0902 40.7363 24.9445C40.8997 25.0473 41.0693 25.1409 41.2442 25.2247C42.3682 25.7626 43.4751 25.9231 44.0209 25.8684Z" fill="#33F3ED"/>
<defs>
<filter id="filter0_d_624_843" x="2" y="2" width="65" height="63.5195" filterUnits="userSpaceOnUse" color-interpolation-filters="sRGB">
<feFlood flood-opacity="0" result="BackgroundImageFix"/>
<feColorMatrix in="SourceAlpha" type="matrix" values="0 0 0 0 0 0 0 0 0 0 0 0 0 0 0 0 0 0 127 0" result="hardAlpha"/>
<feOffset dx="1" dy="1"/>
<feGaussianBlur stdDeviation="2"/>
<feColorMatrix type="matrix" values="0 0 0 0 0.933333 0 0 0 0 0.113725 0 0 0 0 0.321569 0 0 0 0.25 0"/>
<feBlend mode="normal" in2="BackgroundImageFix" result="effect1_dropShadow_624_843"/>
<feBlend mode="normal" in="SourceGraphic" in2="effect1_dropShadow_624_843" result="shape"/>
</filter>
<filter id="filter1_d_624_843" x="0" y="0" width="65" height="63.5195" filterUnits="userSpaceOnUse" color-interpolation-filters="sRGB">
<feFlood flood-opacity="0" result="BackgroundImageFix"/>
<feColorMatrix in="SourceAlpha" type="matrix" values="0 0 0 0 0 0 0 0 0 0 0 0 0 0 0 0 0 0 127 0" result="hardAlpha"/>
<feOffset dx="-1" dy="-1"/>
<feGaussianBlur stdDeviation="2"/>
<feColorMatrix type="matrix" values="0 0 0 0 0.411765 0 0 0 0 0.788235 0 0 0 0 0.815686 0 0 0 0.25 0"/>
<feBlend mode="normal" in2="BackgroundImageFix" result="effect1_dropShadow_624_843"/>
<feBlend mode="normal" in="SourceGraphic" in2="effect1_dropShadow_624_843" result="shape"/>
</filter>
</defs>
</svg>
