<svg width="66" height="65" viewBox="0 0 66 65" fill="none" xmlns="http://www.w3.org/2000/svg">
<g filter="url(#filter0_d_1215_2479)">
<rect x="7" y="7" width="52.36" height="51" rx="13.6" fill="#0A0A0B"/>
</g>
<path d="M33.5151 19.9814C30.0232 19.9814 29.5849 19.9967 28.2134 20.0591C26.8446 20.1218 25.9103 20.3385 25.0927 20.6565C24.2471 20.9849 23.5297 21.4242 22.815 22.1392C22.0998 22.8539 21.6605 23.5713 21.331 24.4167C21.0122 25.2345 20.7953 26.1692 20.7337 27.5375C20.6723 28.909 20.6562 29.3476 20.6562 32.8396C20.6562 36.3317 20.6718 36.7686 20.7339 38.1401C20.7969 39.509 21.0136 40.4434 21.3313 41.2609C21.66 42.1066 22.0993 42.824 22.8142 43.5387C23.5286 44.2539 24.246 44.6943 25.0911 45.0228C25.9092 45.3407 26.8438 45.5574 28.2123 45.6201C29.5838 45.6825 30.0218 45.6978 33.5135 45.6978C37.0057 45.6978 37.4426 45.6825 38.8141 45.6201C40.183 45.5574 41.1184 45.3407 41.9364 45.0228C42.7818 44.6943 43.4981 44.2539 44.2125 43.5387C44.9277 42.824 45.3671 42.1066 45.6965 41.2612C46.0126 40.4434 46.2296 39.5087 46.2939 38.1404C46.3555 36.7689 46.3716 36.3317 46.3716 32.8396C46.3716 29.3476 46.3555 28.9093 46.2939 27.5378C46.2296 26.1689 46.0126 25.2345 45.6965 24.417C45.3671 23.5713 44.9277 22.8539 44.2125 22.1392C43.4973 21.424 42.7821 20.9847 41.9356 20.6565C41.1159 20.3385 40.1811 20.1218 38.8123 20.0591C37.4408 19.9967 37.0041 19.9814 33.5111 19.9814H33.5151ZM32.3617 22.2986C32.704 22.2981 33.086 22.2986 33.5151 22.2986C36.9481 22.2986 37.355 22.3109 38.7107 22.3725C39.9644 22.4299 40.6448 22.6393 41.098 22.8153C41.698 23.0484 42.1258 23.327 42.5756 23.777C43.0256 24.2271 43.3042 24.6557 43.5378 25.2557C43.7138 25.7084 43.9235 26.3888 43.9806 27.6425C44.0422 28.998 44.0556 29.4052 44.0556 32.8367C44.0556 36.2682 44.0422 36.6754 43.9806 38.0308C43.9232 39.2845 43.7138 39.9649 43.5378 40.4176C43.3047 41.0177 43.0256 41.445 42.5756 41.8947C42.1255 42.3448 41.6983 42.6234 41.098 42.8564C40.6453 43.0332 39.9644 43.2422 38.7107 43.2995C37.3553 43.3611 36.9481 43.3745 33.5151 43.3745C30.0818 43.3745 29.6749 43.3611 28.3195 43.2995C27.0659 43.2416 26.3855 43.0321 25.932 42.8561C25.3319 42.6231 24.9033 42.3445 24.4533 41.8945C24.0033 41.4444 23.7247 41.0169 23.4911 40.4166C23.3151 39.9639 23.1054 39.2834 23.0483 38.0298C22.9867 36.6743 22.9744 36.2671 22.9744 32.8335C22.9744 29.3998 22.9867 28.9948 23.0483 27.6393C23.1057 26.3856 23.3151 25.7052 23.4911 25.252C23.7242 24.6519 24.0033 24.2233 24.4533 23.7733C24.9033 23.3232 25.3319 23.0446 25.932 22.811C26.3852 22.6342 27.0659 22.4253 28.3195 22.3677C29.5056 22.3141 29.9653 22.2981 32.3617 22.2954V22.2986ZM40.3785 24.4336C39.5267 24.4336 38.8356 25.1239 38.8356 25.976C38.8356 26.8279 39.5267 27.519 40.3785 27.519C41.2303 27.519 41.9214 26.8279 41.9214 25.976C41.9214 25.1242 41.2303 24.4331 40.3785 24.4331V24.4336ZM33.5151 26.2364C29.8686 26.2364 26.9121 29.193 26.9121 32.8396C26.9121 36.4863 29.8686 39.4415 33.5151 39.4415C37.1616 39.4415 40.1171 36.4863 40.1171 32.8396C40.1171 29.193 37.1614 26.2364 33.5148 26.2364H33.5151ZM33.5151 28.5536C35.882 28.5536 37.801 30.4724 37.801 32.8396C37.801 35.2066 35.882 37.1257 33.5151 37.1257C31.1479 37.1257 29.2292 35.2066 29.2292 32.8396C29.2292 30.4724 31.1479 28.5536 33.5151 28.5536Z" fill="url(#paint0_linear_1215_2479)"/>
<defs>
<filter id="filter0_d_1215_2479" x="0.593881" y="0.593881" width="65.1716" height="63.8122" filterUnits="userSpaceOnUse" color-interpolation-filters="sRGB">
<feFlood flood-opacity="0" result="BackgroundImageFix"/>
<feColorMatrix in="SourceAlpha" type="matrix" values="0 0 0 0 0 0 0 0 0 0 0 0 0 0 0 0 0 0 127 0" result="hardAlpha"/>
<feOffset/>
<feGaussianBlur stdDeviation="3.20306"/>
<feColorMatrix type="matrix" values="0 0 0 0 0.168627 0 0 0 0 0.51498 0 0 0 0 0.921569 0 0 0 0.5 0"/>
<feBlend mode="normal" in2="BackgroundImageFix" result="effect1_dropShadow_1215_2479"/>
<feBlend mode="normal" in="SourceGraphic" in2="effect1_dropShadow_1215_2479" result="shape"/>
</filter>
<linearGradient id="paint0_linear_1215_2479" x1="20.6093" y1="32.6244" x2="46.2338" y2="32.6244" gradientUnits="userSpaceOnUse">
<stop stop-color="#235EB6"/>
<stop offset="1" stop-color="#247CAE"/>
</linearGradient>
</defs>
</svg>
