<svg width="67" height="66" viewBox="0 0 67 66" fill="none" xmlns="http://www.w3.org/2000/svg">
<g filter="url(#filter0_d_624_822)">
<rect x="5" y="5" width="57" height="55.5195" rx="14.8052" fill="#222222"/>
</g>
<g filter="url(#filter1_d_624_822)">
<rect x="5" y="5" width="57" height="55.5195" rx="14.8052" fill="#222222"/>
</g>
<path d="M26.0802 36.4884C26.2338 35.2163 26.7556 34.504 27.7387 33.7739C29.1455 32.7851 30.9027 33.3444 30.9027 33.3444V30.0261C31.3299 30.0152 31.7573 30.0405 32.1799 30.1018V34.3721C32.1799 34.3721 30.4232 33.8128 29.0164 34.8021C28.0337 35.5317 27.5109 36.2445 27.3578 37.5166C27.353 38.2074 27.4827 39.1103 28.0796 39.8911C27.932 39.8154 27.7816 39.7291 27.6283 39.6323C26.3133 38.7493 26.0738 37.4246 26.0802 36.4884ZM39.4356 23.8905C38.4679 22.8301 38.1019 21.7594 37.9696 21.0073H39.187C39.187 21.0073 38.9443 22.9794 40.7133 24.9187L40.7378 24.9448C40.261 24.6449 39.8238 24.2909 39.4356 23.8905ZM45.3 26.897V31.0814C45.3 31.0814 43.7466 31.0206 42.5969 30.7281C40.9917 30.3191 39.96 29.6917 39.96 29.6917C39.96 29.6917 39.2473 29.2443 39.1897 29.2131V37.854C39.1897 38.3352 39.0579 39.5367 38.6562 40.5389C38.1318 41.8498 37.3225 42.7104 37.1737 42.8862C37.1737 42.8862 36.1894 44.0494 34.453 44.8327C32.8878 45.5394 31.5136 45.5215 31.1028 45.5394C31.1028 45.5394 28.7273 45.6334 26.5896 44.2442C26.1274 43.938 25.6959 43.5913 25.3008 43.2084L25.3115 43.216C27.4496 44.6052 29.8246 44.5111 29.8246 44.5111C30.2359 44.4932 31.6101 44.5111 33.1748 43.8045C34.9096 43.0212 35.8955 41.858 35.8955 41.858C36.0427 41.6821 36.8557 40.8216 37.378 39.5101C37.7786 38.5085 37.9115 37.3065 37.9115 36.8253V28.1854C37.9691 28.2171 38.6813 28.6645 38.6813 28.6645C38.6813 28.6645 39.7135 29.2924 41.3187 29.7009C42.4689 29.9934 44.0218 30.0542 44.0218 30.0542V26.7753C44.5532 26.8944 45.0061 26.9266 45.3 26.897Z" fill="#FD355A"/>
<path d="M44.024 26.7753V30.0532C44.024 30.0532 42.471 29.9923 41.3209 29.6999C39.7157 29.2908 38.6834 28.6635 38.6834 28.6635C38.6834 28.6635 37.9712 28.2161 37.9136 28.1844V36.8263C37.9136 37.3075 37.7818 38.5095 37.3801 39.5112C36.8557 40.8226 36.0465 41.6832 35.8976 41.859C35.8976 41.859 34.9128 43.0222 33.1769 43.8055C31.6123 44.5122 30.238 44.4943 29.8267 44.5122C29.8267 44.5122 27.4517 44.6062 25.3136 43.217L25.3029 43.2094C25.0772 42.9908 24.8647 42.76 24.6665 42.5181C23.9842 41.6862 23.5659 40.7025 23.4608 40.4218C23.4607 40.4206 23.4607 40.4194 23.4608 40.4182C23.2917 39.9304 22.9364 38.759 22.985 37.6245C23.0709 35.6227 23.7751 34.3941 23.9612 34.0863C24.4543 33.2469 25.0956 32.496 25.8566 31.8668C26.5282 31.3238 27.2894 30.8918 28.109 30.5885C28.995 30.2324 29.9437 30.0415 30.9043 30.0261V33.3444C30.9043 33.3444 29.1471 32.7871 27.7409 33.7739C26.7577 34.504 26.2359 35.2163 26.0823 36.4884C26.0759 37.4246 26.3154 38.7493 27.6294 39.6329C27.7827 39.73 27.9331 39.8162 28.0807 39.8916C28.3102 40.19 28.5896 40.4499 28.9076 40.6611C30.1911 41.4735 31.2666 41.5303 32.6418 41.0026C33.5589 40.6498 34.2492 39.8548 34.5693 38.9738C34.7704 38.4236 34.7677 37.8699 34.7677 37.2972V21.0073H37.9685C38.1008 21.7594 38.4668 22.8301 39.4345 23.8905C39.8227 24.2909 40.2599 24.6449 40.7367 24.9448C40.8776 25.0905 41.5977 25.811 42.5222 26.2532C43.0003 26.4818 43.5042 26.657 44.024 26.7753V26.7753Z" fill="white"/>
<path d="M22.1836 39.4028V39.4054L22.263 39.6206C22.2539 39.5956 22.2244 39.5194 22.1836 39.4028Z" fill="#33F3ED"/>
<path d="M28.1063 30.5885C27.2867 30.8918 26.5255 31.3238 25.8539 31.8667C25.0927 32.4973 24.4515 33.2499 23.9591 34.0908C23.7729 34.3976 23.0687 35.6273 22.9828 37.629C22.9343 38.7636 23.2896 39.935 23.4587 40.4227C23.4585 40.4239 23.4585 40.4251 23.4587 40.4263C23.5654 40.7045 23.982 41.6882 24.6643 42.5226C24.8625 42.7645 25.075 42.9953 25.3007 43.2139C24.5775 42.7345 23.9324 42.1548 23.3866 41.4939C22.7102 40.6692 22.293 39.6957 22.1842 39.4083C22.1841 39.4063 22.1841 39.4042 22.1842 39.4022V39.3986C22.0146 38.9113 21.6582 37.7395 21.7078 36.6034C21.7937 34.6016 22.4979 33.373 22.6841 33.0652C23.1764 32.2241 23.8176 31.4715 24.5789 30.841C25.2504 30.2979 26.0116 29.8659 26.8313 29.5628C27.3425 29.3595 27.8752 29.2095 28.4199 29.1154C29.2409 28.9781 30.0794 28.9661 30.9043 29.0801V30.026C29.9428 30.0411 28.9931 30.232 28.1063 30.5885Z" fill="#33F3ED"/>
<path d="M37.9681 21.0072H34.7673V37.2977C34.7673 37.8703 34.7673 38.4225 34.5688 38.9742C34.2456 39.8547 33.5579 40.6497 32.6414 41.0025C31.2656 41.5322 30.1901 41.4734 28.9071 40.661C28.5886 40.4508 28.3085 40.1917 28.0781 39.894C29.1712 40.4529 30.1496 40.4432 31.3616 39.9769C32.2776 39.6241 32.9663 38.829 33.2885 37.948C33.4902 37.3979 33.4875 36.8442 33.4875 36.272V19.9785H37.9073C37.9073 19.9785 37.8577 20.3835 37.9681 21.0072ZM44.0209 25.8687V26.7752C43.502 26.6567 42.999 26.4816 42.5218 26.2532C41.5973 25.8109 40.8771 25.0905 40.7363 24.9447C40.8997 25.0476 41.0693 25.1411 41.2442 25.2249C42.3682 25.7628 43.4751 25.9234 44.0209 25.8687Z" fill="#33F3ED"/>
<defs>
<filter id="filter0_d_624_822" x="2" y="2" width="65" height="63.5195" filterUnits="userSpaceOnUse" color-interpolation-filters="sRGB">
<feFlood flood-opacity="0" result="BackgroundImageFix"/>
<feColorMatrix in="SourceAlpha" type="matrix" values="0 0 0 0 0 0 0 0 0 0 0 0 0 0 0 0 0 0 127 0" result="hardAlpha"/>
<feOffset dx="1" dy="1"/>
<feGaussianBlur stdDeviation="2"/>
<feColorMatrix type="matrix" values="0 0 0 0 0.933333 0 0 0 0 0.113725 0 0 0 0 0.321569 0 0 0 0.25 0"/>
<feBlend mode="normal" in2="BackgroundImageFix" result="effect1_dropShadow_624_822"/>
<feBlend mode="normal" in="SourceGraphic" in2="effect1_dropShadow_624_822" result="shape"/>
</filter>
<filter id="filter1_d_624_822" x="0" y="0" width="65" height="63.5195" filterUnits="userSpaceOnUse" color-interpolation-filters="sRGB">
<feFlood flood-opacity="0" result="BackgroundImageFix"/>
<feColorMatrix in="SourceAlpha" type="matrix" values="0 0 0 0 0 0 0 0 0 0 0 0 0 0 0 0 0 0 127 0" result="hardAlpha"/>
<feOffset dx="-1" dy="-1"/>
<feGaussianBlur stdDeviation="2"/>
<feColorMatrix type="matrix" values="0 0 0 0 0.411765 0 0 0 0 0.788235 0 0 0 0 0.815686 0 0 0 0.25 0"/>
<feBlend mode="normal" in2="BackgroundImageFix" result="effect1_dropShadow_624_822"/>
<feBlend mode="normal" in="SourceGraphic" in2="effect1_dropShadow_624_822" result="shape"/>
</filter>
</defs>
</svg>
